<mxfile host="app.diagrams.net" agent="Mozilla/5.0 (Windows NT 10.0; Win64; x64) AppleWebKit/537.36 (KHTML, like Gecko) Chrome/127.0.0.0 Safari/537.36" version="24.7.7">
  <diagram name="‫עמוד-1‬" id="RxYZaycGBdoJBNL9fLf0">
    <mxGraphModel dx="880" dy="468" grid="1" gridSize="10" guides="1" tooltips="1" connect="1" arrows="1" fold="1" page="1" pageScale="1" pageWidth="827" pageHeight="1169" math="0" shadow="0">
      <root>
        <mxCell id="0" />
        <mxCell id="1" parent="0" />
        <mxCell id="4XfOmVH22FHidTBxlW36-7" value="" style="edgeStyle=orthogonalEdgeStyle;rounded=0;orthogonalLoop=1;jettySize=auto;html=1;" edge="1" parent="1" source="4XfOmVH22FHidTBxlW36-1" target="4XfOmVH22FHidTBxlW36-3">
          <mxGeometry relative="1" as="geometry" />
        </mxCell>
        <mxCell id="4XfOmVH22FHidTBxlW36-1" value="start" style="rounded=1;whiteSpace=wrap;html=1;" vertex="1" parent="1">
          <mxGeometry x="280" y="80" width="120" height="50" as="geometry" />
        </mxCell>
        <mxCell id="4XfOmVH22FHidTBxlW36-2" value="x (int) = 55" style="rounded=0;whiteSpace=wrap;html=1;" vertex="1" parent="1">
          <mxGeometry x="280" y="160" width="120" height="60" as="geometry" />
        </mxCell>
        <mxCell id="4XfOmVH22FHidTBxlW36-8" value="" style="edgeStyle=orthogonalEdgeStyle;rounded=0;orthogonalLoop=1;jettySize=auto;html=1;" edge="1" parent="1" source="4XfOmVH22FHidTBxlW36-3" target="4XfOmVH22FHidTBxlW36-5">
          <mxGeometry relative="1" as="geometry" />
        </mxCell>
        <mxCell id="4XfOmVH22FHidTBxlW36-3" value="x" style="shape=document;whiteSpace=wrap;html=1;boundedLbl=1;" vertex="1" parent="1">
          <mxGeometry x="280" y="240" width="120" height="80" as="geometry" />
        </mxCell>
        <mxCell id="4XfOmVH22FHidTBxlW36-4" value="y (int) = 55555" style="rounded=0;whiteSpace=wrap;html=1;" vertex="1" parent="1">
          <mxGeometry x="280" y="350" width="120" height="60" as="geometry" />
        </mxCell>
        <mxCell id="4XfOmVH22FHidTBxlW36-13" value="" style="edgeStyle=orthogonalEdgeStyle;rounded=0;orthogonalLoop=1;jettySize=auto;html=1;" edge="1" parent="1" source="4XfOmVH22FHidTBxlW36-5" target="4XfOmVH22FHidTBxlW36-10">
          <mxGeometry relative="1" as="geometry" />
        </mxCell>
        <mxCell id="4XfOmVH22FHidTBxlW36-5" value="y" style="shape=document;whiteSpace=wrap;html=1;boundedLbl=1;" vertex="1" parent="1">
          <mxGeometry x="280" y="430" width="120" height="80" as="geometry" />
        </mxCell>
        <mxCell id="4XfOmVH22FHidTBxlW36-14" value="" style="edgeStyle=orthogonalEdgeStyle;rounded=0;orthogonalLoop=1;jettySize=auto;html=1;" edge="1" parent="1" source="4XfOmVH22FHidTBxlW36-10" target="4XfOmVH22FHidTBxlW36-11">
          <mxGeometry relative="1" as="geometry" />
        </mxCell>
        <mxCell id="4XfOmVH22FHidTBxlW36-10" value="mul (int) = x*y" style="rounded=0;whiteSpace=wrap;html=1;" vertex="1" parent="1">
          <mxGeometry x="280" y="540" width="120" height="60" as="geometry" />
        </mxCell>
        <mxCell id="4XfOmVH22FHidTBxlW36-15" value="" style="edgeStyle=orthogonalEdgeStyle;rounded=0;orthogonalLoop=1;jettySize=auto;html=1;" edge="1" parent="1" source="4XfOmVH22FHidTBxlW36-11" target="4XfOmVH22FHidTBxlW36-12">
          <mxGeometry relative="1" as="geometry" />
        </mxCell>
        <mxCell id="4XfOmVH22FHidTBxlW36-11" value="mul" style="shape=document;whiteSpace=wrap;html=1;boundedLbl=1;" vertex="1" parent="1">
          <mxGeometry x="280" y="640" width="120" height="80" as="geometry" />
        </mxCell>
        <mxCell id="4XfOmVH22FHidTBxlW36-12" value="end" style="rounded=1;whiteSpace=wrap;html=1;" vertex="1" parent="1">
          <mxGeometry x="280" y="750" width="120" height="60" as="geometry" />
        </mxCell>
      </root>
    </mxGraphModel>
  </diagram>
</mxfile>
